# xmcd CD database file
# Copyright (C) 1997 Ti Kan
# 
# Track frame offsets:
#     150
#     23792
#     42700
#     62495
#     84422
#     104162
#     128057
#     152480
#     169517
#     186182
#     204687
#     224382
#     242085
#     262720
#     274520
#     301645
# 
# Disc length: 4390 seconds
# 
# Revision: 1
# Processed by: cddbd v1.4b41PL1 Copyright (c) Steve Scherf et al.
# Submitted via: DiscPlay 4.0.3
# 
DISCID=d4112410
DTITLE=Alligator Records - Alligator Blues Classics - Volumen II
DYEAR=1900
DGENRE=
TTITLE0=Bob Margolin: Worried Life Blues
TTITLE1=Saffire: A'int Nobody's Bussines
TTITLE2=Delbert McClinton: B. Movie Boxcar Blues
TTITLE3=Charles Brown: Save Your Love For Me
TTITLE4=Lonnie Mack: Natural Disaster
TTITLE5=Kenny Neal: Branded
TTITLE6=Albert Collins: I Got The Feelling
TTITLE7=Dave Hole: Purple Haze
TTITLE8=Buddy Guy - Jr. Wells: Don't Leave Me
TTITLE9=Tinsley Ellis: As The Years Go Passing By
TTITLE10=Little Charlie: Homicide
TTITLE11=Maurice John Vaughn: Suicide Is Not The Way
TTITLE12=Katie Webster: I'm Bad
TTITLE13=Johnny Winter: Shake Your Money Maker
TTITLE14=Rufus Thomas: Somebody's Got To Go
TTITLE15=Sugar Blue: Miss You
EXTD=Compilacion Argentina de Alligator Records con temas seleccionados por 
EXTD=Bobby Flores
EXTT0=
EXTT1=
EXTT2=
EXTT3=
EXTT4=
EXTT5=
EXTT6=
EXTT7=
EXTT8=
EXTT9=
EXTT10=
EXTT11=
EXTT12=
EXTT13=
EXTT14=
EXTT15=
PLAYORDER=
